  0
SECTION
  2
HEADER
  9
$ACADVER
  1
AC1014
  9
$HANDSEED
  5
FFFF
  9
$MEASUREMENT
 70
     1
  0
ENDSEC
  0
SECTION
  2
TABLES
  0
TABLE
  2
VPORT
  5
8
330
0
100
AcDbSymbolTable
 70
     4
  0
VPORT
  5
2E
330
8
100
AcDbSymbolTableRecord
100
AcDbViewportTableRecord
  2
*ACTIVE
 70
     0
 10
0.0
 20
0.0
 11
1.0
 21
1.0
 12
210.0
 22
148.5
 13
0.0
 23
0.0
 14
10.0
 24
10.0
 15
10.0
 25
10.0
 16
0.0
 26
0.0
 36
1.0
 17
0.0
 27
0.0
 37
0.0
 40
341.0
 41
1.24
 42
50.0
 43
0.0
 44
0.0
 50
0.0
 51
0.0
 71
     0
 72
   100
 73
     1
 74
     3
 75
     0
 76
     0
 77
     0
 78
     0
  0
ENDTAB
  0
TABLE
  2
LTYPE
  5
5
330
0
100
AcDbSymbolTable
 70
     1
  0
LTYPE
  5
14
330
5
100
AcDbSymbolTableRecord
100
AcDbLinetypeTableRecord
  2
BYBLOCK
 70
     0
  3

 72
    65
 73
     0
 40
0.0
  0
LTYPE
  5
15
330
5
100
AcDbSymbolTableRecord
100
AcDbLinetypeTableRecord
  2
BYLAYER
 70
     0
  3

 72
    65
 73
     0
 40
0.0
  0
LTYPE
  5
16
330
5
100
AcDbSymbolTableRecord
100
AcDbLinetypeTableRecord
  2
CONTINUOUS
 70
     0
  3
Solid line
 72
    65
 73
     0
 40
0.0
  0
ENDTAB
  0
TABLE
  2
LAYER
  5
2
100
AcDbSymbolTable
 70
2
  0
LAYER
  5
50
100
AcDbSymbolTableRecord
100
AcDbLayerTableRecord
  2
0
 70
0
  6
CONTINUOUS
  0
LAYER
  5
51
100
AcDbSymbolTableRecord
100
AcDbLayerTableRecord
  2
final
 70
0
  6
CONTINUOUS
  0
ENDTAB
  0
TABLE
  2
STYLE
  5
3
330
0
100
AcDbSymbolTable
 70
     1
  0
STYLE
  5
11
330
3
100
AcDbSymbolTableRecord
100
AcDbTextStyleTableRecord
  2
STANDARD
 70
     0
 40
0.0
 41
1.0
 50
0.0
 71
     0
 42
2.5
  3
txt
  4

  0
ENDTAB
  0
TABLE
  2
VIEW
  5
6
330
0
100
AcDbSymbolTable
 70
     0
  0
ENDTAB
  0
TABLE
  2
UCS
  5
7
330
0
100
AcDbSymbolTable
 70
     0
  0
ENDTAB
  0
TABLE
  2
APPID
  5
9
330
0
100
AcDbSymbolTable
 70
     2
  0
APPID
  5
12
330
9
100
AcDbSymbolTableRecord
100
AcDbRegAppTableRecord
  2
ACAD
 70
     0
  0
ENDTAB
  0
TABLE
  2
DIMSTYLE
  5
A
330
0
100
AcDbSymbolTable
 70
     1
  0
DIMSTYLE
105
27
330
A
100
AcDbSymbolTableRecord
100
AcDbDimStyleTableRecord
  2
ISO-25
 70
     0
  3

  4

  5

  6

  7

 40
1.0
 41
2.5
 42
0.625
 43
3.75
 44
1.25
 45
0.0
 46
0.0
 47
0.0
 48
0.0
140
2.5
141
2.5
142
0.0
143
0.03937007874016
144
1.0
145
0.0
146
1.0
147
0.625
 71
     0
 72
     0
 73
     0
 74
     0
 75
     0
 76
     0
 77
     1
 78
     8
170
     0
171
     3
172
     1
173
     0
174
     0
175
     0
176
     0
177
     0
178
     0
270
     2
271
     2
272
     2
273
     2
274
     3
340
11
275
     0
280
     0
281
     0
282
     0
283
     0
284
     8
285
     0
286
     0
287
     3
288
     0
  0
ENDTAB
  0
TABLE
  2
BLOCK_RECORD
  5
1
330
0
100
AcDbSymbolTable
 70
     1
  0
BLOCK_RECORD
  5
1F
330
1
100
AcDbSymbolTableRecord
100
AcDbBlockTableRecord
  2
*MODEL_SPACE
  0
BLOCK_RECORD
  5
1B
330
1
100
AcDbSymbolTableRecord
100
AcDbBlockTableRecord
  2
*PAPER_SPACE
  0
ENDTAB
  0
ENDSEC
  0
SECTION
  2
BLOCKS
  0
BLOCK
  5
20
330
1F
100
AcDbEntity
  8
0
100
AcDbBlockBegin
  2
*MODEL_SPACE
 70
     0
 10
0.0
 20
0.0
 30
0.0
  3
*MODEL_SPACE
  1

  0
ENDBLK
  5
21
330
1F
100
AcDbEntity
  8
0
100
AcDbBlockEnd
  0
BLOCK
  5
1C
330
1B
100
AcDbEntity
 67
     1
  8
0
100
AcDbBlockBegin
  2
*PAPER_SPACE
  1

  0
ENDBLK
  5
1D
330
1B
100
AcDbEntity
 67
     1
  8
0
100
AcDbBlockEnd
  0
ENDSEC
  0
SECTION
  2
ENTITIES
  0
LWPOLYLINE
  5
100
100
AcDbEntity
  8
final
 62
7
100
AcDbPolyline
 90
6
 70
1
 10
13.614815
 20
74.479503
 30
0.0
 10
49.999997
 20
95.486498
 30
0.0
 10
86.385526
 20
74.479305
 30
0.0
 10
80.563457
 20
74.479324
 30
0.0
 10
49.999637
 20
92.125361
 30
0.0
 10
19.436093
 20
74.479491
 30
0.0
  0
LWPOLYLINE
  5
101
100
AcDbEntity
  8
final
 62
7
100
AcDbPolyline
 90
12
 70
1
 10
13.614447
 20
71.118362
 30
0.0
 10
19.436487
 20
71.118343
 30
0.0
 10
50.000246
 20
53.472257
 30
0.0
 10
80.563865
 20
71.118168
 30
0.0
 10
86.719258
 20
71.118155
 30
0.0
 10
89.392460
 20
72.632088
 30
0.0
 10
89.392460
 20
30.617689
 30
0.0
 10
86.481451
 20
32.298386
 30
0.0
 10
86.481443
 20
67.590460
 30
0.0
 10
55.917824
 20
49.944546
 30
0.0
 10
53.007172
 20
51.625034
 30
0.0
 10
49.999886
 20
49.999937
 30
0.0
  0
LWPOLYLINE
  5
102
100
AcDbEntity
  8
final
 62
7
100
AcDbPolyline
 90
6
 70
1
 10
50.096163
 20
46.583409
 30
0.0
 10
53.007191
 20
44.902707
 30
0.0
 10
53.007270
 20
9.610688
 30
0.0
 10
83.570817
 20
27.256560
 30
0.0
 10
86.481451
 20
25.576083
 30
0.0
 10
50.000000
 20
4.402341
 30
0.0
  0
LWPOLYLINE
  5
103
100
AcDbEntity
  8
final
 62
7
100
AcDbPolyline
 90
25
 70
1
 10
83.206796
 20
35.029267
 30
0.0
 10
82.920931
 20
33.228843
 30
0.0
 10
82.141234
 20
31.443183
 30
0.0
 10
80.984745
 20
29.875022
 30
0.0
 10
79.568505
 20
28.727095
 30
0.0
 10
78.855310
 20
28.396780
 30
0.0
 10
78.176022
 20
28.242924
 30
0.0
 10
77.549732
 20
28.267424
 30
0.0
 10
76.995530
 20
28.472160
 30
0.0
 10
76.541125
 20
28.849750
 30
0.0
 10
76.206768
 20
29.379891
 30
0.0
 10
76.000368
 20
30.045105
 30
0.0
 10
75.929828
 20
30.827914
 30
0.0
 10
76.215839
 20
32.628390
 30
0.0
 10
76.995656
 20
34.414028
 30
0.0
 10
78.152226
 20
35.982099
 30
0.0
 10
79.568498
 20
37.129875
 30
0.0
 10
80.301722
 20
37.467806
 30
0.0
 10
80.984648
 20
37.617273
 30
0.0
 10
81.602649
 20
37.586723
 30
0.0
 10
82.141097
 20
37.384598
 30
0.0
 10
82.585363
 20
37.019345
 30
0.0
 10
82.920820
 20
36.499409
 30
0.0
 10
83.132840
 20
35.833238
 30
0.0
 10
83.206790
 20
35.029275
 30
0.0
  0
LWPOLYLINE
  5
104
100
AcDbEntity
  8
final
 62
7
100
AcDbPolyline
 90
25
 70
1
 10
83.206781
 20
57.716937
 30
0.0
 10
82.920916
 20
55.916508
 30
0.0
 10
82.141218
 20
54.130843
 30
0.0
 10
80.984727
 20
52.562677
 30
0.0
 10
79.568485
 20
51.414747
 30
0.0
 10
78.855288
 20
51.084432
 30
0.0
 10
78.175999
 20
50.930577
 30
0.0
 10
77.549708
 20
50.955077
 30
0.0
 10
76.995506
 20
51.159815
 30
0.0
 10
76.541099
 20
51.537407
 30
0.0
 10
76.206742
 20
52.067550
 30
0.0
 10
76.000342
 20
52.732767
 30
0.0
 10
75.929802
 20
53.515578
 30
0.0
 10
76.206737
 20
55.283385
 30
0.0
 10
76.995498
 20
57.101904
 30
0.0
 10
78.175991
 20
58.694255
 30
0.0
 10
79.568477
 20
59.817988
 30
0.0
 10
80.301752
 20
60.155937
 30
0.0
 10
80.984720
 20
60.305394
 30
0.0
 10
81.602750
 20
60.274814
 30
0.0
 10
82.141212
 20
60.072634
 30
0.0
 10
82.585476
 20
59.707309
 30
0.0
 10
82.920912
 20
59.187287
 30
0.0
 10
83.132889
 20
58.521017
 30
0.0
 10
83.206779
 20
57.716947
 30
0.0
  0
LWPOLYLINE
  5
105
100
AcDbEntity
  8
final
 62
7
100
AcDbPolyline
 90
25
 70
1
 10
73.382815
 20
40.701237
 30
0.0
 10
73.096951
 20
38.900811
 30
0.0
 10
72.317254
 20
37.115148
 30
0.0
 10
71.160765
 20
35.546985
 30
0.0
 10
69.744524
 20
34.399056
 30
0.0
 10
69.031328
 20
34.068741
 30
0.0
 10
68.352039
 20
33.914886
 30
0.0
 10
67.725749
 20
33.939386
 30
0.0
 10
67.171546
 20
34.144123
 30
0.0
 10
66.717140
 20
34.521714
 30
0.0
 10
66.382783
 20
35.051856
 30
0.0
 10
66.176382
 20
35.717071
 30
0.0
 10
66.105842
 20
36.499881
 30
0.0
 10
66.391852
 20
38.300358
 30
0.0
 10
67.171669
 20
40.085998
 30
0.0
 10
68.328239
 20
41.654070
 30
0.0
 10
69.744511
 20
42.801848
 30
0.0
 10
70.477736
 20
43.139779
 30
0.0
 10
71.160663
 20
43.289245
 30
0.0
 10
71.778664
 20
43.258695
 30
0.0
 10
72.317113
 20
43.056569
 30
0.0
 10
72.761380
 20
42.691315
 30
0.0
 10
73.096837
 20
42.171379
 30
0.0
 10
73.308858
 20
41.505207
 30
0.0
 10
73.382808
 20
40.701244
 30
0.0
  0
LWPOLYLINE
  5
106
100
AcDbEntity
  8
final
 62
7
100
AcDbPolyline
 90
25
 70
1
 10
63.558858
 20
23.685558
 30
0.0
 10
63.281924
 20
21.917759
 30
0.0
 10
62.493166
 20
20.099246
 30
0.0
 10
61.312678
 20
18.506902
 30
0.0
 10
59.920196
 20
17.383171
 30
0.0
 10
59.186922
 20
17.045222
 30
0.0
 10
58.503955
 20
16.895764
 30
0.0
 10
57.885925
 20
16.926344
 30
0.0
 10
57.347463
 20
17.128521
 30
0.0
 10
56.903198
 20
17.493843
 30
0.0
 10
56.567761
 20
18.013862
 30
0.0
 10
56.355782
 20
18.680129
 30
0.0
 10
56.281892
 20
19.484195
 30
0.0
 10
56.567755
 20
21.284620
 30
0.0
 10
57.347451
 20
23.070281
 30
0.0
 10
58.503940
 20
24.638443
 30
0.0
 10
59.920182
 20
25.786371
 30
0.0
 10
60.633377
 20
26.116685
 30
0.0
 10
61.312665
 20
26.270540
 30
0.0
 10
61.938955
 20
26.246050
 30
0.0
 10
62.493158
 20
26.041313
 30
0.0
 10
62.947564
 20
25.663723
 30
0.0
 10
63.281920
 20
25.133581
 30
0.0
 10
63.488321
 20
24.468367
 30
0.0
 10
63.558861
 20
23.685559
 30
0.0
  0
LWPOLYLINE
  5
107
100
AcDbEntity
  8
final
 62
7
100
AcDbPolyline
 90
25
 70
1
 10
63.558824
 20
46.373205
 30
0.0
 10
63.281890
 20
44.605401
 30
0.0
 10
62.493131
 20
42.786883
 30
0.0
 10
61.312641
 20
41.194535
 30
0.0
 10
59.920157
 20
40.070801
 30
0.0
 10
59.186881
 20
39.732852
 30
0.0
 10
58.503913
 20
39.583394
 30
0.0
 10
57.885882
 20
39.613974
 30
0.0
 10
57.347419
 20
39.816153
 30
0.0
 10
56.903154
 20
40.181477
 30
0.0
 10
56.567716
 20
40.701498
 30
0.0
 10
56.355737
 20
41.367767
 30
0.0
 10
56.281847
 20
42.171837
 30
0.0
 10
56.567819
 20
43.972189
 30
0.0
 10
57.347540
 20
45.757727
 30
0.0
 10
58.503989
 20
47.325758
 30
0.0
 10
59.920141
 20
48.473591
 30
0.0
 10
60.653424
 20
48.811632
 30
0.0
 10
61.336414
 20
48.961183
 30
0.0
 10
61.954479
 20
48.930693
 30
0.0
 10
62.492987
 20
48.728605
 30
0.0
 10
62.937308
 20
48.363366
 30
0.0
 10
63.272808
 20
47.843422
 30
0.0
 10
63.484858
 20
47.177219
 30
0.0
 10
63.558828
 20
46.373202
 30
0.0
  0
LWPOLYLINE
  5
108
100
AcDbEntity
  8
final
 62
7
100
AcDbPolyline
 90
43
 70
1
 10
45.909935
 20
14.631791
 30
0.0
 10
44.148181
 20
17.683095
 30
0.0
 10
44.447565
 20
18.631184
 30
0.0
 10
44.548787
 20
19.739926
 30
0.0
 10
44.445060
 20
20.987652
 30
0.0
 10
44.147616
 20
22.265724
 30
0.0
 10
43.676981
 20
23.538595
 30
0.0
 10
43.053680
 20
24.770716
 30
0.0
 10
42.298237
 20
25.926538
 30
0.0
 10
41.431178
 20
26.970514
 30
0.0
 10
40.473026
 20
27.867095
 30
0.0
 10
39.444307
 20
28.580733
 30
0.0
 10
38.435098
 20
29.044064
 30
0.0
 10
37.466245
 20
29.256005
 30
0.0
 10
34.959903
 20
33.596913
 30
0.0
 10
35.259287
 20
34.545001
 30
0.0
 10
35.360510
 20
35.653744
 30
0.0
 10
35.256782
 20
36.901470
 30
0.0
 10
34.959339
 20
38.179542
 30
0.0
 10
34.488704
 20
39.452413
 30
0.0
 10
33.865403
 20
40.684533
 30
0.0
 10
33.109960
 20
41.840356
 30
0.0
 10
32.242901
 20
42.884331
 30
0.0
 10
31.284749
 20
43.780912
 30
0.0
 10
30.256030
 20
44.494550
 30
0.0
 10
29.246820
 20
44.957880
 30
0.0
 10
28.277967
 20
45.169822
 30
0.0
 10
25.771626
 20
49.510729
 30
0.0
 10
26.071010
 20
50.458818
 30
0.0
 10
26.172233
 20
51.567562
 30
0.0
 10
26.073214
 20
52.780007
 30
0.0
 10
25.783607
 20
54.047539
 30
0.0
 10
25.314505
 20
55.332833
 30
0.0
 10
24.677001
 20
56.598566
 30
0.0
 10
23.899506
 20
57.783457
 30
0.0
 10
23.020888
 20
58.832265
 30
0.0
 10
22.067927
 20
59.716724
 30
0.0
 10
21.067401
 20
60.408569
 30
0.0
 10
20.058370
 20
60.871756
 30
0.0
 10
19.089690
 20
61.083639
 30
0.0
 10
17.324068
 20
64.141645
 30
0.0
 10
45.909935
 20
47.639432
 30
0.0
 10
45.909935
 20
14.631791
 30
0.0
  0
LWPOLYLINE
  5
109
100
AcDbEntity
  8
final
 62
7
100
AcDbPolyline
 90
42
 70
1
 10
43.187639
 20
13.059535
 30
0.0
 10
14.601771
 20
29.561748
 30
0.0
 10
14.601771
 20
62.569390
 30
0.0
 10
16.363525
 20
59.518086
 30
0.0
 10
16.064141
 20
58.569996
 30
0.0
 10
15.962919
 20
57.461253
 30
0.0
 10
16.061869
 20
56.248840
 30
0.0
 10
16.351410
 20
54.981322
 30
0.0
 10
16.820452
 20
53.696025
 30
0.0
 10
17.457903
 20
52.430272
 30
0.0
 10
18.235355
 20
51.245343
 30
0.0
 10
19.113941
 20
50.196483
 30
0.0
 10
20.066883
 20
49.311959
 30
0.0
 10
21.067402
 20
48.620039
 30
0.0
 10
22.076629
 20
48.156898
 30
0.0
 10
23.045462
 20
47.945176
 30
0.0
 10
25.551804
 20
43.604268
 30
0.0
 10
25.252419
 20
42.656178
 30
0.0
 10
25.151197
 20
41.547435
 30
0.0
 10
25.250157
 20
40.334966
 30
0.0
 10
25.539723
 20
39.067392
 30
0.0
 10
26.008804
 20
37.782039
 30
0.0
 10
26.646306
 20
36.516239
 30
0.0
 10
27.423817
 20
35.331280
 30
0.0
 10
28.302463
 20
34.282410
 30
0.0
 10
29.255462
 20
33.397900
 30
0.0
 10
30.256032
 20
32.706020
 30
0.0
 10
31.265079
 20
32.243022
 30
0.0
 10
32.233741
 20
32.031358
 30
0.0
 10
34.740082
 20
27.690450
 30
0.0
 10
34.440698
 20
26.742361
 30
0.0
 10
34.339475
 20
25.633618
 30
0.0
 10
34.438435
 20
24.421149
 30
0.0
 10
34.728001
 20
23.153574
 30
0.0
 10
35.197082
 20
21.868222
 30
0.0
 10
35.834585
 20
20.602422
 30
0.0
 10
36.612096
 20
19.417462
 30
0.0
 10
37.490742
 20
18.368592
 30
0.0
 10
38.443741
 20
17.484083
 30
0.0
 10
39.444310
 20
16.792203
 30
0.0
 10
40.453358
 20
16.329205
 30
0.0
 10
41.422019
 20
16.117540
 30
0.0
  0
LWPOLYLINE
  5
10a
100
AcDbEntity
  8
final
 62
7
100
AcDbPolyline
 90
25
 70
1
 10
70.011764
 20
76.790100
 30
0.0
 10
70.654429
 20
76.337608
 30
0.0
 10
71.127323
 20
75.826252
 30
0.0
 10
71.419262
 20
75.271619
 30
0.0
 10
71.519062
 20
74.689296
 30
0.0
 10
71.419272
 20
74.106973
 30
0.0
 10
71.127340
 20
73.552341
 30
0.0
 10
70.654453
 20
73.040988
 30
0.0
 10
70.011794
 20
72.588499
 30
0.0
 10
68.309536
 20
71.935963
 30
0.0
 10
66.373220
 20
71.718495
 30
0.0
 10
64.436940
 20
71.936089
 30
0.0
 10
62.734791
 20
72.588737
 30
0.0
 10
62.075514
 20
73.054766
 30
0.0
 10
61.604601
 20
73.571467
 30
0.0
 10
61.322051
 20
74.121950
 30
0.0
 10
61.227861
 20
74.689324
 30
0.0
 10
61.322041
 20
75.256697
 30
0.0
 10
61.604582
 20
75.807179
 30
0.0
 10
62.075488
 20
76.323878
 30
0.0
 10
62.734757
 20
76.789904
 30
0.0
 10
64.436899
 20
77.442543
 30
0.0
 10
66.373177
 20
77.660126
 30
0.0
 10
68.309498
 20
77.442648
 30
0.0
 10
70.011765
 20
76.790100
 30
0.0
  0
LWPOLYLINE
  5
10b
100
AcDbEntity
  8
final
 62
7
100
AcDbPolyline
 90
25
 70
1
 10
56.913034
 20
84.352662
 30
0.0
 10
57.555700
 20
83.900170
 30
0.0
 10
58.028595
 20
83.388815
 30
0.0
 10
58.320535
 20
82.834182
 30
0.0
 10
58.420335
 20
82.251859
 30
0.0
 10
58.320545
 20
81.669537
 30
0.0
 10
58.028614
 20
81.114905
 30
0.0
 10
57.555727
 20
80.603552
 30
0.0
 10
56.913067
 20
80.151063
 30
0.0
 10
55.210809
 20
79.498526
 30
0.0
 10
53.274493
 20
79.281059
 30
0.0
 10
51.338214
 20
79.498653
 30
0.0
 10
49.636068
 20
80.151302
 30
0.0
 10
48.976670
 20
80.617326
 30
0.0
 10
48.505654
 20
81.134038
 30
0.0
 10
48.223021
 20
81.684544
 30
0.0
 10
48.128771
 20
82.251949
 30
0.0
 10
48.222911
 20
82.819359
 30
0.0
 10
48.505439
 20
83.369880
 30
0.0
 10
48.976356
 20
83.886618
 30
0.0
 10
49.635665
 20
84.352678
 30
0.0
 10
51.305086
 20
84.996738
 30
0.0
 10
53.274343
 20
85.222900
 30
0.0
 10
55.243604
 20
84.996729
 30
0.0
 10
56.913033
 20
84.352662
 30
0.0
  0
LWPOLYLINE
  5
10c
100
AcDbEntity
  8
final
 62
7
100
AcDbPolyline
 90
25
 70
1
 10
60.187415
 20
71.118010
 30
0.0
 10
60.846814
 20
70.651985
 30
0.0
 10
61.317831
 20
70.135271
 30
0.0
 10
61.600465
 20
69.584764
 30
0.0
 10
61.694715
 20
69.017358
 30
0.0
 10
61.600575
 20
68.449947
 30
0.0
 10
61.318047
 20
67.899424
 30
0.0
 10
60.847129
 20
67.382686
 30
0.0
 10
60.187819
 20
66.916625
 30
0.0
 10
58.518395
 20
66.272565
 30
0.0
 10
56.549136
 20
66.046404
 30
0.0
 10
54.579873
 20
66.272577
 30
0.0
 10
52.910442
 20
66.916647
 30
0.0
 10
52.251125
 20
67.382711
 30
0.0
 10
51.780200
 20
67.899453
 30
0.0
 10
51.497665
 20
68.449977
 30
0.0
 10
51.403515
 20
69.017389
 30
0.0
 10
51.497755
 20
69.584795
 30
0.0
 10
51.780381
 20
70.135300
 30
0.0
 10
52.251392
 20
70.652011
 30
0.0
 10
52.910785
 20
71.118032
 30
0.0
 10
54.612914
 20
71.770539
 30
0.0
 10
56.549094
 20
71.988038
 30
0.0
 10
58.485277
 20
71.770527
 30
0.0
 10
60.187414
 20
71.118010
 30
0.0
  0
LWPOLYLINE
  5
10d
100
AcDbEntity
  8
final
 62
7
100
AcDbPolyline
 90
25
 70
1
 10
47.088694
 20
78.680577
 30
0.0
 10
47.748094
 20
78.214553
 30
0.0
 10
48.219112
 20
77.697840
 30
0.0
 10
48.501746
 20
77.147333
 30
0.0
 10
48.595996
 20
76.579927
 30
0.0
 10
48.501856
 20
76.012516
 30
0.0
 10
48.219328
 20
75.461993
 30
0.0
 10
47.748409
 20
74.945255
 30
0.0
 10
47.089099
 20
74.479194
 30
0.0
 10
45.419675
 20
73.835133
 30
0.0
 10
43.450415
 20
73.608973
 30
0.0
 10
41.481154
 20
73.835146
 30
0.0
 10
39.811725
 20
74.479218
 30
0.0
 10
39.169062
 20
74.931709
 30
0.0
 10
38.696171
 20
75.443065
 30
0.0
 10
38.404234
 20
75.997697
 30
0.0
 10
38.304434
 20
76.580019
 30
0.0
 10
38.404224
 20
77.162340
 30
0.0
 10
38.696155
 20
77.716971
 30
0.0
 10
39.169041
 20
78.228323
 30
0.0
 10
39.811699
 20
78.680812
 30
0.0
 10
41.513954
 20
79.333349
 30
0.0
 10
43.450267
 20
79.550817
 30
0.0
 10
45.386544
 20
79.333224
 30
0.0
 10
47.088690
 20
78.680577
 30
0.0
  0
LWPOLYLINE
  5
10e
100
AcDbEntity
  8
final
 62
7
100
AcDbPolyline
 90
25
 70
1
 10
50.363812
 20
65.446353
 30
0.0
 10
51.006476
 20
64.993860
 30
0.0
 10
51.479369
 20
64.482504
 30
0.0
 10
51.771308
 20
63.927871
 30
0.0
 10
51.871108
 20
63.345548
 30
0.0
 10
51.771318
 20
62.763225
 30
0.0
 10
51.479386
 20
62.208593
 30
0.0
 10
51.006500
 20
61.697240
 30
0.0
 10
50.363841
 20
61.244751
 30
0.0
 10
48.694417
 20
60.600690
 30
0.0
 10
46.725158
 20
60.374529
 30
0.0
 10
44.755896
 20
60.600702
 30
0.0
 10
43.086465
 20
61.244773
 30
0.0
 10
42.427149
 20
61.710838
 30
0.0
 10
41.956224
 20
62.227580
 30
0.0
 10
41.673689
 20
62.778104
 30
0.0
 10
41.579539
 20
63.345516
 30
0.0
 10
41.673779
 20
63.912923
 30
0.0
 10
41.956406
 20
64.463429
 30
0.0
 10
42.427417
 20
64.980139
 30
0.0
 10
43.086811
 20
65.446161
 30
0.0
 10
44.788953
 20
66.098799
 30
0.0
 10
46.725229
 20
66.316381
 30
0.0
 10
48.661547
 20
66.098901
 30
0.0
 10
50.363811
 20
65.446353
 30
0.0
  0
LWPOLYLINE
  5
10f
100
AcDbEntity
  8
final
 62
7
100
AcDbPolyline
 90
25
 70
1
 10
37.265100
 20
73.008926
 30
0.0
 10
37.907765
 20
72.556434
 30
0.0
 10
38.380659
 20
72.045078
 30
0.0
 10
38.672598
 20
71.490445
 30
0.0
 10
38.772398
 20
70.908122
 30
0.0
 10
38.672608
 20
70.325800
 30
0.0
 10
38.380677
 20
69.771168
 30
0.0
 10
37.907790
 20
69.259814
 30
0.0
 10
37.265131
 20
68.807325
 30
0.0
 10
35.595707
 20
68.163264
 30
0.0
 10
33.626447
 20
67.937104
 30
0.0
 10
31.657186
 20
68.163278
 30
0.0
 10
29.987758
 20
68.807349
 30
0.0
 10
29.345095
 20
69.259841
 30
0.0
 10
28.872204
 20
69.771197
 30
0.0
 10
28.580268
 20
70.325830
 30
0.0
 10
28.480468
 20
70.908153
 30
0.0
 10
28.580258
 20
71.490475
 30
0.0
 10
28.872190
 20
72.045105
 30
0.0
 10
29.345077
 20
72.556458
 30
0.0
 10
29.987736
 20
73.008946
 30
0.0
 10
31.657157
 20
73.653005
 30
0.0
 10
33.626412
 20
73.879166
 30
0.0
 10
35.595670
 20
73.652994
 30
0.0
 10
37.265097
 20
73.008926
 30
0.0
  0
ENDSEC
  0
SECTION
  2
OBJECTS
  0
DICTIONARY
  5
C
330
0
100
AcDbDictionary
  3
ACAD_GROUP
350
D
  3
ACAD_MLINESTYLE
350
17
  0
DICTIONARY
  5
D
330
C
100
AcDbDictionary
  0
DICTIONARY
  5
1A
330
C
100
AcDbDictionary
  0
DICTIONARY
  5
17
330
C
100
AcDbDictionary
  3
STANDARD
350
18
  0
DICTIONARY
  5
19
330
C
100
AcDbDictionary
  0
ENDSEC
  0
EOF
